<svg xmlns="http://www.w3.org/2000/svg" viewBox="0 0 225 225" width="225" height="225">
  <g fill="#FFFFFF" fill-rule="evenodd">
    <path d="M 70.00 83.50 L 69.00 83.50 L 68.50 83.00 L 68.50 82.00 L 68.50 81.00 L 68.50 80.00 L 68.50 79.00 L 68.50 78.00 L 68.50 77.00 L 68.00 76.50 L 67.50 76.00 L 67.50 75.00 L 67.00 74.50 L 66.00 74.50 L 65.00 74.50 L 64.50 75.00 L 64.00 75.50 L 63.50 76.00 L 63.50 77.00 L 63.50 78.00 L 63.50 79.00 L 63.50 80.00 L 63.50 81.00 L 63.50 82.00 L 63.50 83.00 L 63.00 83.50 L 62.00 83.50 L 61.00 83.50 L 60.50 83.00 L 60.50 82.00 L 60.50 81.00 L 60.50 80.00 L 60.50 79.00 L 60.50 78.00 L 60.50 77.00 L 60.50 76.00 L 60.50 75.00 L 60.50 74.00 L 60.50 73.00 L 60.50 72.00 L 60.50 71.00 L 60.50 70.00 L 60.50 69.00 L 60.50 68.00 L 60.50 67.00 L 61.00 66.50 L 62.00 66.50 L 63.00 66.50 L 63.50 67.00 L 63.50 68.00 L 63.50 69.00 L 63.50 70.00 L 63.50 71.00 L 63.50 72.00 L 64.00 72.50 L 64.50 72.00 L 65.00 71.50 L 66.00 71.50 L 66.50 72.00 L 67.00 72.50 L 68.00 72.50 L 68.50 73.00 L 69.00 73.50 L 69.50 74.00 L 70.00 74.50 L 70.50 75.00 L 70.50 76.00 L 70.50 77.00 L 70.50 78.00 L 70.50 79.00 L 70.50 80.00 L 70.50 81.00 L 70.50 82.00 L 70.50 83.00 L 70.00 83.50 Z"/> <path d="M 59.00 83.50 L 58.00 83.50 L 57.00 83.50 L 56.00 83.50 L 55.00 83.50 L 54.50 83.00 L 54.00 82.50 L 53.50 82.00 L 53.00 81.50 L 52.50 81.00 L 52.50 80.00 L 52.50 79.00 L 52.50 78.00 L 52.50 77.00 L 52.50 76.00 L 52.50 75.00 L 52.00 74.50 L 51.50 74.00 L 51.50 73.00 L 52.00 72.50 L 52.50 72.00 L 53.00 71.50 L 53.50 71.00 L 54.00 70.50 L 55.00 70.50 L 55.50 71.00 L 55.50 72.00 L 56.00 72.50 L 57.00 72.50 L 58.00 72.50 L 58.50 73.00 L 58.50 74.00 L 58.00 74.50 L 57.00 74.50 L 56.00 74.50 L 55.50 75.00 L 55.50 76.00 L 55.50 77.00 L 55.50 78.00 L 55.50 79.00 L 55.50 80.00 L 55.50 81.00 L 56.00 81.50 L 57.00 81.50 L 58.00 81.50 L 58.50 81.00 L 59.00 80.50 L 59.50 81.00 L 59.50 82.00 L 59.50 83.00 L 59.00 83.50 Z"/> <path d="M 81.00 83.50 L 80.00 83.50 L 79.00 83.50 L 78.00 83.50 L 77.00 83.50 L 76.00 83.50 L 75.50 83.00 L 75.00 82.50 L 74.50 82.00 L 74.00 81.50 L 73.50 81.00 L 73.00 80.50 L 72.50 80.00 L 72.50 79.00 L 72.50 78.00 L 72.50 77.00 L 72.50 76.00 L 73.00 75.50 L 73.50 75.00 L 74.00 74.50 L 74.50 74.00 L 75.00 73.50 L 75.50 73.00 L 76.00 72.50 L 77.00 72.50 L 78.00 72.50 L 79.00 72.50 L 80.00 72.50 L 80.50 73.00 L 81.00 73.50 L 81.50 74.00 L 82.00 74.50 L 82.50 75.00 L 82.50 76.00 L 83.00 76.50 L 83.50 77.00 L 83.00 77.50 L 82.50 78.00 L 82.00 78.50 L 81.00 78.50 L 80.00 78.50 L 79.00 78.50 L 78.00 78.50 L 77.00 78.50 L 76.00 78.50 L 75.50 79.00 L 76.00 79.50 L 76.50 80.00 L 77.00 80.50 L 77.50 81.00 L 78.00 81.50 L 79.00 81.50 L 80.00 81.50 L 81.00 81.50 L 82.00 81.50 L 82.50 82.00 L 82.00 82.50 L 81.50 83.00 L 81.00 83.50 Z"/> <path d="M 102.00 164.50 L 100.00 164.50 L 98.00 164.50 L 96.00 164.50 L 94.00 164.50 L 94.00 163.50 L 95.00 162.50 L 95.50 161.00 L 96.50 160.00 L 98.00 159.50 L 98.50 158.00 L 99.50 157.00 L 100.50 156.00 L 101.50 155.00 L 102.50 154.00 L 103.50 153.00 L 104.50 152.00 L 105.50 151.00 L 106.50 150.00 L 107.50 149.00 L 108.00 147.50 L 109.00 146.50 L 110.00 145.50 L 111.00 144.50 L 111.00 143.50 L 109.00 143.50 L 107.50 143.00 L 107.50 141.00 L 107.50 139.00 L 107.50 137.00 L 107.50 135.00 L 107.50 133.00 L 107.50 131.00 L 107.50 129.00 L 107.50 127.00 L 107.50 125.00 L 107.50 123.00 L 107.50 121.00 L 107.50 119.00 L 107.50 117.00 L 107.50 115.00 L 107.50 113.00 L 107.50 111.00 L 107.50 109.00 L 107.50 107.00 L 107.50 105.00 L 107.50 103.00 L 107.50 101.00 L 107.50 99.00 L 107.50 97.00 L 107.50 95.00 L 107.50 93.00 L 107.50 91.00 L 107.50 89.00 L 109.00 88.50 L 110.00 87.50 L 112.00 87.50 L 113.50 88.00 L 115.00 88.50 L 115.50 90.00 L 115.50 92.00 L 115.50 94.00 L 115.50 96.00 L 115.50 98.00 L 115.50 100.00 L 115.50 102.00 L 115.50 104.00 L 115.50 106.00 L 115.50 108.00 L 115.50 110.00 L 115.50 112.00 L 115.50 114.00 L 115.50 116.00 L 115.50 118.00 L 115.50 120.00 L 115.50 122.00 L 115.50 124.00 L 115.50 126.00 L 115.50 128.00 L 115.50 130.00 L 115.50 132.00 L 115.50 134.00 L 115.50 136.00 L 115.50 138.00 L 116.50 138.00 L 117.50 137.00 L 118.50 136.00 L 119.50 135.00 L 120.50 134.00 L 121.50 133.00 L 122.50 132.00 L 123.50 131.00 L 124.00 129.50 L 125.00 128.50 L 126.50 128.00 L 127.50 127.00 L 128.00 125.50 L 129.00 124.50 L 130.00 123.50 L 131.00 122.50 L 132.00 121.50 L 133.00 120.50 L 134.00 119.50 L 135.00 118.50 L 136.00 117.50 L 136.50 116.00 L 137.50 115.00 L 136.50 114.00 L 136.00 112.50 L 135.00 111.50 L 134.00 110.50 L 133.00 109.50 L 132.50 108.00 L 131.50 107.00 L 130.50 106.00 L 129.50 105.00 L 128.50 104.00 L 127.50 103.00 L 127.00 101.50 L 126.00 100.50 L 125.00 99.50 L 124.00 98.50 L 123.00 97.50 L 122.50 96.00 L 121.50 95.00 L 120.50 94.00 L 119.50 93.00 L 119.00 91.50 L 118.00 90.50 L 117.00 89.50 L 117.00 88.50 L 119.00 88.50 L 120.00 87.50 L 122.00 87.50 L 123.50 88.00 L 125.00 88.50 L 126.00 89.50 L 127.00 90.50 L 128.00 91.50 L 128.50 93.00 L 129.50 94.00 L 130.50 95.00 L 131.50 96.00 L 132.50 97.00 L 133.50 98.00 L 134.50 99.00 L 135.50 100.00 L 136.00 101.50 L 137.50 102.00 L 138.00 103.50 L 139.00 104.50 L 139.50 106.00 L 140.50 107.00 L 141.50 108.00 L 143.00 108.50 L 144.00 107.50 L 145.00 106.50 L 146.00 105.50 L 147.00 104.50 L 148.00 103.50 L 148.50 102.00 L 149.50 101.00 L 150.50 100.00 L 151.50 99.00 L 152.50 98.00 L 153.50 97.00 L 154.00 95.50 L 155.00 94.50 L 156.00 93.50 L 157.00 92.50 L 158.00 91.50 L 159.00 90.50 L 159.50 89.00 L 160.50 88.00 L 161.50 87.00 L 162.50 86.00 L 163.50 85.00 L 164.50 84.00 L 166.00 83.50 L 168.00 83.50 L 170.00 83.50 L 172.00 83.50 L 172.50 85.00 L 171.50 86.00 L 170.50 87.00 L 170.00 88.50 L 169.00 89.50 L 168.00 90.50 L 167.00 91.50 L 166.00 92.50 L 165.00 93.50 L 164.00 94.50 L 163.50 96.00 L 162.50 97.00 L 161.50 98.00 L 160.50 99.00 L 159.50 100.00 L 158.50 101.00 L 158.00 102.50 L 157.00 103.50 L 156.00 104.50 L 155.00 105.50 L 154.00 106.50 L 153.00 107.50 L 152.00 108.50 L 151.50 110.00 L 150.50 111.00 L 149.50 112.00 L 148.50 113.00 L 148.00 114.50 L 148.00 115.50 L 149.00 116.50 L 149.50 118.00 L 150.50 119.00 L 151.50 120.00 L 152.50 121.00 L 153.50 122.00 L 154.00 123.50 L 155.00 124.50 L 156.00 125.50 L 157.00 126.50 L 158.00 127.50 L 158.50 129.00 L 159.50 130.00 L 160.50 131.00 L 161.50 132.00 L 162.50 133.00 L 163.00 134.50 L 164.00 135.50 L 165.00 136.50 L 166.00 137.50 L 166.50 139.00 L 167.50 140.00 L 168.50 141.00 L 169.50 142.00 L 170.50 143.00 L 169.00 143.50 L 167.00 143.50 L 165.00 143.50 L 163.00 143.50 L 161.50 143.00 L 160.50 142.00 L 159.50 141.00 L 159.00 139.50 L 158.00 138.50 L 157.00 137.50 L 156.00 136.50 L 155.00 135.50 L 154.50 134.00 L 153.50 133.00 L 152.50 132.00 L 151.50 131.00 L 150.50 130.00 L 150.00 128.50 L 149.00 127.50 L 148.00 126.50 L 147.00 125.50 L 146.00 124.50 L 145.00 123.50 L 144.00 122.50 L 143.00 121.50 L 141.00 121.50 L 140.50 123.00 L 139.50 124.00 L 138.50 125.00 L 137.50 126.00 L 136.50 127.00 L 135.50 128.00 L 134.50 129.00 L 133.50 130.00 L 132.50 131.00 L 131.50 132.00 L 131.00 133.50 L 130.00 134.50 L 129.00 135.50 L 128.00 136.50 L 127.00 137.50 L 126.00 138.50 L 125.00 139.50 L 124.00 140.50 L 123.50 142.00 L 122.50 143.00 L 121.00 143.50 L 120.00 144.50 L 119.50 146.00 L 118.50 147.00 L 117.50 148.00 L 116.50 149.00 L 115.50 150.00 L 114.50 151.00 L 113.50 152.00 L 112.50 153.00 L 111.50 154.00 L 110.50 155.00 L 110.00 156.50 L 108.50 157.00 L 108.00 158.50 L 107.00 159.50 L 106.00 160.50 L 105.00 161.50 L 104.00 162.50 L 103.00 163.50 L 102.00 164.50 Z"/> <path d="M 102.00 143.50 L 101.00 143.50 L 100.00 143.50 L 99.00 143.50 L 98.00 143.50 L 97.00 143.50 L 96.00 143.50 L 95.00 143.50 L 94.50 143.00 L 94.50 142.00 L 94.50 141.00 L 94.50 140.00 L 94.50 139.00 L 94.50 138.00 L 94.50 137.00 L 94.50 136.00 L 94.50 135.00 L 94.50 134.00 L 94.50 133.00 L 94.50 132.00 L 94.50 131.00 L 94.50 130.00 L 94.50 129.00 L 94.50 128.00 L 94.50 127.00 L 94.50 126.00 L 94.50 125.00 L 94.50 124.00 L 94.50 123.00 L 94.50 122.00 L 94.50 121.00 L 94.50 120.00 L 94.50 119.00 L 94.50 118.00 L 94.50 117.00 L 94.50 116.00 L 94.50 115.00 L 94.50 114.00 L 94.50 113.00 L 94.50 112.00 L 94.50 111.00 L 94.50 110.00 L 94.50 109.00 L 94.50 108.00 L 94.50 107.00 L 94.50 106.00 L 94.50 105.00 L 94.50 104.00 L 94.50 103.00 L 94.50 102.00 L 94.00 101.50 L 93.50 102.00 L 93.50 103.00 L 93.00 103.50 L 92.50 104.00 L 92.00 104.50 L 91.50 105.00 L 91.00 105.50 L 90.50 106.00 L 90.00 106.50 L 89.50 107.00 L 89.00 107.50 L 88.50 108.00 L 88.50 109.00 L 88.00 109.50 L 87.50 110.00 L 87.00 110.50 L 86.50 111.00 L 86.00 111.50 L 85.50 112.00 L 85.00 112.50 L 84.50 113.00 L 84.50 114.00 L 84.00 114.50 L 83.50 115.00 L 83.00 115.50 L 82.50 116.00 L 82.00 116.50 L 81.50 117.00 L 81.00 117.50 L 80.50 118.00 L 80.50 119.00 L 80.00 119.50 L 79.50 120.00 L 79.00 120.50 L 78.50 121.00 L 78.00 121.50 L 77.00 121.50 L 76.00 121.50 L 75.50 121.00 L 75.00 120.50 L 74.50 120.00 L 74.00 119.50 L 73.50 119.00 L 73.00 118.50 L 72.50 118.00 L 72.00 117.50 L 71.50 117.00 L 71.50 116.00 L 71.00 115.50 L 70.00 115.50 L 69.50 115.00 L 69.50 114.00 L 69.00 113.50 L 68.50 113.00 L 68.00 112.50 L 67.50 112.00 L 67.00 111.50 L 66.50 111.00 L 66.50 110.00 L 66.00 109.50 L 65.50 109.00 L 65.00 108.50 L 64.50 108.00 L 64.00 107.50 L 63.50 107.00 L 63.50 106.00 L 63.00 105.50 L 62.50 105.00 L 62.00 104.50 L 61.50 104.00 L 61.00 103.50 L 60.50 103.00 L 60.00 102.50 L 59.50 103.00 L 59.50 104.00 L 59.50 105.00 L 59.50 106.00 L 59.50 107.00 L 59.50 108.00 L 59.50 109.00 L 59.50 110.00 L 59.50 111.00 L 59.50 112.00 L 59.50 113.00 L 59.50 114.00 L 59.50 115.00 L 59.50 116.00 L 59.50 117.00 L 59.50 118.00 L 59.50 119.00 L 59.50 120.00 L 59.50 121.00 L 59.50 122.00 L 59.50 123.00 L 59.50 124.00 L 59.50 125.00 L 59.50 126.00 L 59.50 127.00 L 59.50 128.00 L 59.50 129.00 L 59.50 130.00 L 59.50 131.00 L 59.50 132.00 L 59.50 133.00 L 59.50 134.00 L 59.50 135.00 L 59.50 136.00 L 59.50 137.00 L 59.50 138.00 L 59.50 139.00 L 59.50 140.00 L 59.50 141.00 L 59.50 142.00 L 59.00 142.50 L 58.50 143.00 L 58.00 143.50 L 57.00 143.50 L 56.00 143.50 L 55.00 143.50 L 54.00 143.50 L 53.00 143.50 L 52.00 143.50 L 51.00 143.50 L 50.50 143.00 L 50.50 142.00 L 50.50 141.00 L 50.50 140.00 L 50.50 139.00 L 50.50 138.00 L 50.50 137.00 L 50.50 136.00 L 50.50 135.00 L 50.50 134.00 L 50.50 133.00 L 50.50 132.00 L 50.50 131.00 L 50.50 130.00 L 50.50 129.00 L 50.50 128.00 L 50.50 127.00 L 50.50 126.00 L 50.50 125.00 L 50.50 124.00 L 50.50 123.00 L 50.50 122.00 L 50.50 121.00 L 50.50 120.00 L 50.50 119.00 L 50.50 118.00 L 50.50 117.00 L 50.50 116.00 L 50.50 115.00 L 50.50 114.00 L 50.50 113.00 L 50.50 112.00 L 50.50 111.00 L 50.50 110.00 L 50.50 109.00 L 50.50 108.00 L 50.50 107.00 L 50.50 106.00 L 50.50 105.00 L 50.50 104.00 L 50.50 103.00 L 50.50 102.00 L 50.50 101.00 L 50.50 100.00 L 50.50 99.00 L 50.50 98.00 L 50.50 97.00 L 50.50 96.00 L 50.50 95.00 L 50.50 94.00 L 50.50 93.00 L 50.50 92.00 L 50.50 91.00 L 50.50 90.00 L 50.50 89.00 L 50.50 88.00 L 51.00 87.50 L 52.00 87.50 L 53.00 87.50 L 54.00 87.50 L 55.00 87.50 L 56.00 87.50 L 57.00 87.50 L 58.00 87.50 L 58.50 88.00 L 59.00 88.50 L 59.50 89.00 L 60.00 89.50 L 60.50 90.00 L 61.00 90.50 L 61.50 91.00 L 62.00 91.50 L 62.50 92.00 L 63.00 92.50 L 63.50 93.00 L 63.50 94.00 L 64.00 94.50 L 64.50 95.00 L 65.00 95.50 L 65.50 96.00 L 66.00 96.50 L 66.50 97.00 L 67.00 97.50 L 67.50 98.00 L 67.50 99.00 L 68.00 99.50 L 68.50 100.00 L 69.00 100.50 L 69.50 101.00 L 70.00 101.50 L 70.50 102.00 L 70.50 103.00 L 71.00 103.50 L 71.50 104.00 L 72.00 104.50 L 72.50 105.00 L 73.00 105.50 L 73.50 106.00 L 74.00 106.50 L 74.50 107.00 L 75.00 107.50 L 75.50 108.00 L 75.50 109.00 L 76.00 109.50 L 76.50 110.00 L 77.00 110.50 L 77.50 110.00 L 78.00 109.50 L 78.50 109.00 L 78.50 108.00 L 79.00 107.50 L 79.50 107.00 L 80.00 106.50 L 80.50 106.00 L 81.00 105.50 L 81.50 105.00 L 82.00 104.50 L 82.50 104.00 L 83.00 103.50 L 83.50 103.00 L 83.50 102.00 L 84.00 101.50 L 84.50 101.00 L 85.00 100.50 L 85.50 100.00 L 86.00 99.50 L 86.50 99.00 L 86.50 98.00 L 87.00 97.50 L 87.50 97.00 L 88.00 96.50 L 88.50 96.00 L 89.00 95.50 L 89.50 95.00 L 90.00 94.50 L 90.50 94.00 L 90.50 93.00 L 91.00 92.50 L 91.50 92.00 L 92.00 91.50 L 92.50 91.00 L 93.00 90.50 L 93.50 90.00 L 94.00 89.50 L 94.50 89.00 L 95.00 88.50 L 95.50 88.00 L 96.00 87.50 L 97.00 87.50 L 98.00 87.50 L 99.00 87.50 L 100.00 87.50 L 101.00 87.50 L 102.00 87.50 L 102.50 88.00 L 102.50 89.00 L 102.50 90.00 L 102.50 91.00 L 102.50 92.00 L 102.50 93.00 L 102.50 94.00 L 102.50 95.00 L 102.50 96.00 L 102.50 97.00 L 102.50 98.00 L 102.50 99.00 L 102.50 100.00 L 102.50 101.00 L 102.50 102.00 L 102.50 103.00 L 102.50 104.00 L 102.50 105.00 L 102.50 106.00 L 102.50 107.00 L 102.50 108.00 L 102.50 109.00 L 102.50 110.00 L 102.50 111.00 L 102.50 112.00 L 102.50 113.00 L 102.50 114.00 L 102.50 115.00 L 102.50 116.00 L 102.50 117.00 L 102.50 118.00 L 102.50 119.00 L 102.50 120.00 L 102.50 121.00 L 102.50 122.00 L 102.50 123.00 L 102.50 124.00 L 102.50 125.00 L 102.50 126.00 L 102.50 127.00 L 102.50 128.00 L 102.50 129.00 L 102.50 130.00 L 102.50 131.00 L 102.50 132.00 L 102.50 133.00 L 102.50 134.00 L 102.50 135.00 L 102.50 136.00 L 102.50 137.00 L 102.50 138.00 L 102.50 139.00 L 102.50 140.00 L 102.50 141.00 L 102.50 142.00 L 102.50 143.00 L 102.00 143.50 Z"/> <path d="M 123.00 117.50 L 122.50 117.00 L 122.50 116.00 L 122.50 115.00 L 122.50 114.00 L 122.50 113.00 L 122.50 112.00 L 122.50 111.00 L 123.00 110.50 L 123.50 111.00 L 124.00 111.50 L 125.00 111.50 L 126.00 111.50 L 126.50 112.00 L 127.00 112.50 L 127.50 113.00 L 128.00 113.50 L 128.50 114.00 L 128.00 114.50 L 127.50 115.00 L 127.00 115.50 L 126.00 115.50 L 125.50 116.00 L 125.00 116.50 L 124.00 116.50 L 123.50 117.00 L 123.00 117.50 Z"/>
  </g>
</svg>
